<svg xmlns="http://www.w3.org/2000/svg" viewBox="0 0 960 760" role="img" aria-labelledby="t d"><title id="t">Aprendizaje circular</title><desc id="d">Diagrama visual de educacion, diseno, economia circular y sostenibilidad.</desc><rect width="960" height="760" fill="#f7f4ef"/><rect x="86" y="80" width="788" height="574" rx="18" fill="#fbfbf8"/><circle cx="480" cy="365" r="166" fill="none" stroke="#243a34" stroke-width="18"/><path d="M480 199c74 0 138 49 159 116" fill="none" stroke="#f0a6a4" stroke-width="22" stroke-linecap="round"/><path d="M640 365c0 78-57 145-132 158" fill="none" stroke="#7b8f69" stroke-width="22" stroke-linecap="round"/><path d="M451 522c-78-15-137-84-137-166" fill="none" stroke="#b89b57" stroke-width="22" stroke-linecap="round"/><circle cx="480" cy="365" r="72" fill="#243a34"/><text x="480" y="356" text-anchor="middle" font-family="Georgia,serif" font-size="30" fill="#fff">Reeducar</text><text x="480" y="389" text-anchor="middle" font-family="Arial,sans-serif" font-size="16" fill="#dce5df">para redisenar</text><rect x="156" y="154" width="178" height="92" rx="8" fill="#243a34"/><text x="245" y="190" text-anchor="middle" font-family="Arial,sans-serif" font-size="17" fill="#fff">Educacion</text><text x="245" y="216" text-anchor="middle" font-family="Arial,sans-serif" font-size="13" fill="#dce5df">criterio</text><rect x="626" y="154" width="178" height="92" rx="8" fill="#f0a6a4"/><text x="715" y="190" text-anchor="middle" font-family="Arial,sans-serif" font-size="17" fill="#252525">Mentoria</text><text x="715" y="216" text-anchor="middle" font-family="Arial,sans-serif" font-size="13" fill="#252525">accion</text><rect x="626" y="514" width="178" height="92" rx="8" fill="#7b8f69"/><text x="715" y="550" text-anchor="middle" font-family="Arial,sans-serif" font-size="17" fill="#fff">Proyectos</text><text x="715" y="576" text-anchor="middle" font-family="Arial,sans-serif" font-size="13" fill="#edf4ed">alianzas</text><rect x="156" y="514" width="178" height="92" rx="8" fill="#b89b57"/><text x="245" y="550" text-anchor="middle" font-family="Arial,sans-serif" font-size="17" fill="#fff">Circularidad</text><text x="245" y="576" text-anchor="middle" font-family="Arial,sans-serif" font-size="13" fill="#fff">sistema</text></svg>